{"title":"Honeymoon.2013.PROPER.DVDRip.XviD.HORiZON-ArtSubs","uid":9908599,"size":1578195762,"categoryP":"video","categoryS":"movies","magnet":"?xt=urn:btih:19284199d9aa2b9376a2f036ecaaff98c214e294&amp;dn=Honeymoon.2013.PROPER.DVDRip.XviD.HORiZON-ArtSubs&amp;tr=udp%3A%2F%2Ftracker.openbittorrent.com%3A80&amp;tr=udp%3A%2F%2Fopen.demonii.com%3A1337&amp;tr=udp%3A%2F%2Ftracker.coppersurfer.tk%3A6969&amp;tr=udp%3A%2F%2Fexodus.desync.com%3A6969","seeders":1,"leechers":0,"uploader":"lletaif","files":3,"time":1396850472,"description":"Title:\nHoneymoon Aka Libanky\n\n\nCountry:\nCzech Republic,2013\n\n\nLangague:\nCzech\n\n\nSubtitle:\nEnglish\n\n\nIMDB:  &lt;a href=&quot;\nhttp://www.imdb.com/title/tt2718538/?ref_=fn_al_tt_1&quot; rel=&quot;nofollow&quot; target=&quot;_NEW&quot;&gt;\nhttp://www.imdb.com/title/tt2718538/?ref_=fn_al_tt_1&lt;/a&gt;\n\n\nTrivia:\nOfficial Selection Toronto International Film Festival 2013\n\n\nGeneral\nComplete name                            : Honeymoon.2013.PROPER.DVDRip.XviD.HORiZON-ArtSubs.avi\nFormat                                   : AVI\nFormat/Info                              : Audio Video Interleave\nFile size                                : 1.46 GiB\nDuration                                 : 1h 38mn\nOverall bit rate                         : 2 130 Kbps\n\n\nVideo\nID                                       : 0\nFormat                                   : MPEG-4 Visual\nFormat profile                           : Advanced Simple@L5\nFormat settings, BVOP                    : 1\nFormat settings, QPel                    : No\nFormat settings, GMC                     : No warppoints\nFormat settings, Matrix                  : Default (MPEG)\nCodec ID                                 : XVID\nCodec ID/Hint                            : XviD\nDuration                                 : 1h 38mn\nBit rate                                 : 1 672 Kbps\nWidth                                    : 720 pixels\nHeight                                   : 304 pixels\nDisplay aspect ratio                     : 2.35:1\nFrame rate                               : 25.000 fps\nColor space                              : YUV\nChroma subsampling                       : 4:2:0\nBit depth                                : 8 bits\nScan type                                : Progressive\nCompression mode                         : Lossy\nBits/(Pixel*Frame)                       : 0.306\nStream size                              : 1.15 GiB (79%)\nWriting library                          : XviD 1.2.1 (UTC 2008-12-04)\n\nAudio\nID                                       : 1\nFormat                                   : AC-3\nFormat/Info                              : Audio Coding 3\nMode extension                           : CM (complete main)\nFormat settings, Endianness              : Big\nCodec ID                                 : 2000\nDuration                                 : 1h 38mn\nBit rate mode                            : Constant\nBit rate                                 : 448 Kbps\nChannel count                            : 6 channels\nChannel positions                        : Front: L C R, Side: L R, LFE\nSampling rate                            : 48.0 KHz\nBit depth                                : 16 bits\nCompression mode                         : Lossy\nDelay relative to video                  : 832ms\nStream size                              : 315 MiB (21%)\nAlignment                                : Split accross interleaves\nInterleave, duration                     : 40 ms (1.00 video frame)\nInterleave, preload duration             : 500 ms\n\n","torrent":{"xt":"urn:btih:19284199d9aa2b9376a2f036ecaaff98c214e294","amp;dn":"Honeymoon.2013.PROPER.DVDRip.XviD.HORiZON-ArtSubs","amp;tr":["udp%3A%2F%2Ftracker.openbittorrent.com%3A80","udp%3A%2F%2Fopen.demonii.com%3A1337","udp%3A%2F%2Ftracker.coppersurfer.tk%3A6969","udp%3A%2F%2Fexodus.desync.com%3A6969"],"infoHash":"19284199d9aa2b9376a2f036ecaaff98c214e294","infoHashBuffer":{"type":"Buffer","data":[25,40,65,153,217,170,43,147,118,162,240,54,236,170,255,152,194,20,226,148]},"announce":[],"urlList":[]}}